# xmcd
#
# Track frame offsets:
# 150
# 18220
# 36273
# 54665
# 84973
# 131003
# 156718
# 174950
# 203038
# 221150
#
# Disc length: 3403 seconds
#
#
# Revision: 0
# Processed by: cddbd v1.5.2PL0 Copyright (c) Steve Scherf et al.
# Submitted via: Nero 7, 11, 10, 0 
#
DISCID=870d490a
DTITLE=Rhythm Doctors - Malpractice
DYEAR=1994
DGENRE=Blues
TTITLE0=Love So Strong
TTITLE1=Lonely Time
TTITLE2=I Can't Buy That
TTITLE3=Black Coffee
TTITLE4=I.C.U.
TTITLE5=Texas Toast
TTITLE6=Your Eyes
TTITLE7=Going Home
TTITLE8=Mainline
TTITLE9=Fatherland
EXTD=
EXTT0=Love So Strong
EXTT1=Lonely Time
EXTT2=I Can't Buy That
EXTT3=Black Coffee
EXTT4=I.C.U.
EXTT5=Texas Toast
EXTT6=Your Eyes
EXTT7=Going Home
EXTT8=Mainline
EXTT9=Fatherland
PLAYORDER=
